# Blender v2.81 (sub 16) OBJ File: ''
# www.blender.org
mtllib PinzaConG.mtl
o PinzaConG_PinzaConG.002
v -6.720168 3.000000 5.727736
v -5.525155 3.000000 6.657851
v -6.310000 3.000000 -28.151085
v -1.267408 3.000000 8.119537
v 0.246913 3.000000 8.119537
v 1.740582 3.000000 7.870287
v 3.172853 3.000000 7.378588
v 4.504660 3.000000 6.657851
v 5.699673 3.000000 5.727736
v 6.725295 3.000000 4.613612
v -4.193349 3.000000 7.378588
v -2.761077 3.000000 7.870287
v 7.553550 3.000000 3.345873
v 8.161845 3.000000 1.959097
v 8.533589 3.000000 0.491114
v -9.182342 3.000000 1.959097
v -9.554086 3.000000 0.491114
v -9.679137 3.000000 -1.018036
v -8.574045 3.000000 3.345873
v -7.745790 3.000000 4.613612
v 8.658641 3.000000 -1.018036
v 5.289505 3.000000 -28.151085
v -6.310000 3.000000 -50.677666
v 5.289505 3.000000 -50.677666
v -7.046756 3.000000 -58.678463
v 6.026260 3.000000 -58.678463
v -7.387468 3.000000 -66.649300
v 6.366973 3.000000 -66.649300
v -7.333634 3.000000 -74.571251
v 6.313138 3.000000 -74.571251
v -6.888194 3.000000 -82.454140
v 5.867699 3.000000 -82.454140
v -6.052162 3.000000 -90.307755
v 5.031667 3.000000 -90.307755
v -4.824625 3.000000 -98.141785
v 3.804129 3.000000 -98.141785
v -3.292410 3.000000 -105.578400
v 2.271914 3.000000 -105.578400
v -2.917162 3.000000 -107.172432
v 1.896667 3.000000 -107.172432
v -1.321902 3.000000 -140.675186
v 0.301407 3.000000 -140.675186
v 5.289505 0.000000 -50.677666
v 5.289505 0.000000 -28.151085
v 6.026260 0.000000 -58.678463
v 6.366973 0.000000 -66.649300
v 6.313138 0.000000 -74.571251
v 5.867699 0.000000 -82.454140
v 5.031667 0.000000 -90.307755
v 3.804129 0.000000 -98.141785
v 2.271914 0.000000 -105.578400
v 1.896667 0.000000 -107.172432
v 0.285082 5.000000 -141.018036
v 0.301407 5.000000 -140.675186
v 0.285082 0.000000 -141.018036
v -1.305577 5.000000 -141.018036
v -1.305577 0.000000 -141.018036
v -1.321902 5.000000 -140.675186
v -2.917162 0.000000 -107.172432
v -3.292410 0.000000 -105.578400
v -4.824625 0.000000 -98.141785
v -6.052162 0.000000 -90.307755
v -6.888194 0.000000 -82.454140
v -7.333634 0.000000 -74.571251
v -7.387468 0.000000 -66.649300
v -7.046756 0.000000 -58.678463
v -6.310000 0.000000 -50.677666
v -6.310000 0.000000 -28.151085
v -9.679137 0.000000 -1.018036
v -9.554086 0.000000 0.491114
v -9.182342 0.000000 1.959097
v -8.574045 0.000000 3.345873
v -7.745790 0.000000 4.613612
v -6.720168 0.000000 5.727736
v -5.525155 0.000000 6.657851
v -4.193349 0.000000 7.378588
v -2.761077 0.000000 7.870287
v -1.267408 0.000000 8.119537
v 0.246913 0.000000 8.119537
v 1.740582 0.000000 7.870287
v 3.172853 0.000000 7.378588
v 4.504660 0.000000 6.657851
v 5.699673 0.000000 5.727736
v 6.725295 0.000000 4.613612
v 7.553550 0.000000 3.345873
v 8.161845 0.000000 1.959097
v 8.533589 0.000000 0.491114
v 8.658641 0.000000 -1.018036
v 6.026260 0.000000 -58.678463
vn 0.0000 1.0000 0.0000
vn 1.0000 0.0000 0.0000
vn 0.9958 0.0000 0.0917
vn 0.9991 0.0000 0.0427
vn 1.0000 0.0000 -0.0068
vn 0.9984 0.0000 -0.0564
vn 0.9944 0.0000 -0.1059
vn 0.9879 0.0000 -0.1548
vn 0.9794 0.0000 -0.2018
vn 0.9734 0.0000 -0.2291
vn 0.9989 0.0000 -0.0476
vn 0.0000 0.0000 -1.0000
vn -0.9989 0.0000 -0.0476
vn -0.9734 0.0000 -0.2291
vn -0.9794 0.0000 -0.2018
vn -0.9879 0.0000 -0.1548
vn -0.9944 0.0000 -0.1059
vn -0.9984 0.0000 -0.0564
vn -1.0000 0.0000 -0.0068
vn -0.9991 0.0000 0.0427
vn -0.9958 0.0000 0.0917
vn -1.0000 0.0000 0.0000
vn -0.9924 0.0000 -0.1232
vn -0.9966 0.0000 0.0826
vn -0.9694 0.0000 0.2455
vn -0.9158 0.0000 0.4017
vn -0.8372 0.0000 0.5469
vn -0.7357 0.0000 0.6773
vn -0.6142 0.0000 0.7891
vn -0.4759 0.0000 0.8795
vn -0.3247 0.0000 0.9458
vn -0.1646 0.0000 0.9864
vn 0.0000 0.0000 1.0000
vn 0.1646 0.0000 0.9864
vn 0.3247 0.0000 0.9458
vn 0.4759 0.0000 0.8795
vn 0.6142 0.0000 0.7891
vn 0.7357 0.0000 0.6773
vn 0.8372 0.0000 0.5469
vn 0.9158 0.0000 0.4017
vn 0.9694 0.0000 0.2455
vn 0.9966 0.0000 0.0826
vn 0.9924 0.0000 -0.1232
vn 0.0000 -1.0000 0.0000
usemtl None
s off
f 1//1 2//1 3//1
f 4//1 5//1 3//1
f 3//1 5//1 6//1
f 3//1 6//1 7//1
f 7//1 8//1 3//1
f 3//1 8//1 9//1
f 3//1 9//1 10//1
f 2//1 11//1 3//1
f 3//1 11//1 12//1
f 3//1 12//1 4//1
f 10//1 13//1 3//1
f 3//1 13//1 14//1
f 3//1 14//1 15//1
f 16//1 3//1 17//1
f 17//1 3//1 18//1
f 16//1 19//1 3//1
f 3//1 19//1 20//1
f 3//1 20//1 1//1
f 15//1 21//1 3//1
f 3//1 21//1 22//1
f 3//1 22//1 23//1
f 23//1 22//1 24//1
f 23//1 24//1 25//1
f 25//1 24//1 26//1
f 25//1 26//1 27//1
f 27//1 26//1 28//1
f 27//1 28//1 29//1
f 29//1 28//1 30//1
f 29//1 30//1 31//1
f 31//1 30//1 32//1
f 31//1 32//1 33//1
f 33//1 32//1 34//1
f 33//1 34//1 35//1
f 35//1 34//1 36//1
f 35//1 36//1 37//1
f 37//1 36//1 38//1
f 37//1 38//1 39//1
f 39//1 38//1 40//1
f 39//1 40//1 41//1
f 41//1 40//1 42//1
f 24//2 22//2 43//2
f 43//2 22//2 44//2
f 24//3 43//3 45//3
f 24//3 45//3 26//3
f 26//4 45//4 46//4
f 26//4 46//4 28//4
f 28//5 46//5 47//5
f 28//5 47//5 30//5
f 30//6 47//6 48//6
f 30//6 48//6 32//6
f 32//7 48//7 49//7
f 32//7 49//7 34//7
f 34//8 49//8 50//8
f 34//8 50//8 36//8
f 36//9 50//9 51//9
f 36//9 51//9 38//9
f 38//10 51//10 52//10
f 38//10 52//10 40//10
f 53//11 54//11 42//11
f 40//11 52//11 42//11
f 42//11 52//11 55//11
f 42//11 55//11 53//11
f 56//12 53//12 57//12
f 57//12 53//12 55//12
f 58//13 56//13 41//13
f 41//13 56//13 57//13
f 41//13 57//13 39//13
f 39//13 57//13 59//13
f 39//14 59//14 60//14
f 39//14 60//14 37//14
f 37//15 60//15 61//15
f 37//15 61//15 35//15
f 35//16 61//16 62//16
f 35//16 62//16 33//16
f 33//17 62//17 63//17
f 33//17 63//17 31//17
f 31//18 63//18 64//18
f 31//18 64//18 29//18
f 29//19 64//19 65//19
f 29//19 65//19 27//19
f 27//20 65//20 66//20
f 27//20 66//20 25//20
f 25//21 66//21 67//21
f 25//21 67//21 23//21
f 3//22 23//22 68//22
f 68//22 23//22 67//22
f 18//23 3//23 69//23
f 69//23 3//23 68//23
f 18//24 69//24 70//24
f 18//24 70//24 17//24
f 17//25 70//25 71//25
f 17//25 71//25 16//25
f 16//26 71//26 72//26
f 16//26 72//26 19//26
f 19//27 72//27 73//27
f 19//27 73//27 20//27
f 20//28 73//28 74//28
f 20//28 74//28 1//28
f 1//29 74//29 75//29
f 1//29 75//29 2//29
f 2//30 75//30 76//30
f 2//30 76//30 11//30
f 11//31 76//31 77//31
f 11//31 77//31 12//31
f 12//32 77//32 78//32
f 12//32 78//32 4//32
f 4//33 78//33 79//33
f 4//33 79//33 5//33
f 5//34 79//34 80//34
f 5//34 80//34 6//34
f 6//35 80//35 81//35
f 6//35 81//35 7//35
f 7//36 81//36 82//36
f 7//36 82//36 8//36
f 8//37 82//37 83//37
f 8//37 83//37 9//37
f 9//38 83//38 84//38
f 9//38 84//38 10//38
f 10//39 84//39 85//39
f 10//39 85//39 13//39
f 13//40 85//40 86//40
f 13//40 86//40 14//40
f 14//41 86//41 87//41
f 14//41 87//41 15//41
f 15//42 87//42 88//42
f 15//42 88//42 21//42
f 22//43 21//43 44//43
f 44//43 21//43 88//43
f 88//44 87//44 68//44
f 87//44 86//44 68//44
f 68//44 86//44 85//44
f 68//44 85//44 84//44
f 84//44 83//44 68//44
f 68//44 83//44 82//44
f 68//44 82//44 81//44
f 81//44 80//44 68//44
f 68//44 80//44 79//44
f 68//44 79//44 78//44
f 78//44 77//44 68//44
f 68//44 77//44 76//44
f 68//44 76//44 75//44
f 75//44 74//44 68//44
f 68//44 74//44 73//44
f 68//44 73//44 72//44
f 72//44 71//44 68//44
f 68//44 71//44 70//44
f 68//44 70//44 69//44
f 57//44 55//44 59//44
f 59//44 55//44 52//44
f 59//44 52//44 60//44
f 60//44 52//44 51//44
f 60//44 51//44 61//44
f 61//44 51//44 50//44
f 61//44 50//44 62//44
f 62//44 50//44 49//44
f 62//44 49//44 63//44
f 63//44 49//44 48//44
f 63//44 48//44 64//44
f 64//44 48//44 47//44
f 64//44 47//44 65//44
f 65//44 47//44 46//44
f 65//44 46//44 66//44
f 66//44 46//44 89//44
f 66//44 89//44 67//44
f 67//44 89//44 43//44
f 67//44 43//44 68//44
f 68//44 43//44 44//44
f 68//44 44//44 88//44
f 54//33 58//33 42//33
f 42//33 58//33 41//33
f 54//1 53//1 58//1
f 58//1 53//1 56//1
