# Blender v2.81 (sub 16) OBJ File: ''
# www.blender.org
mtllib PinzaSinG.mtl
o PinzaSinG
v 5.798933 3.000000 -50.168236
v 5.798933 3.000000 -27.641655
v 5.798933 0.000000 -50.168236
v 5.798933 0.000000 -27.641655
v 6.535594 0.000000 -58.167622
v 6.535594 3.000000 -58.167622
v 6.876349 0.000000 -66.137054
v 6.876349 3.000000 -66.137054
v 6.822699 0.000000 -74.057632
v 6.822699 3.000000 -74.057632
v 6.377581 0.000000 -81.939140
v 6.377581 3.000000 -81.939140
v 5.542008 0.000000 -89.791382
v 5.542008 3.000000 -89.791382
v 4.315069 0.000000 -97.624046
v 4.315069 3.000000 -97.624046
v 2.783556 0.000000 -105.059357
v 2.783556 3.000000 -105.059357
v 2.406095 0.000000 -106.663010
v 2.406095 3.000000 -106.663010
v 0.794510 3.000000 -140.508606
v 0.794510 0.000000 -140.508606
v -0.796149 3.000000 -140.508606
v -0.796149 0.000000 -140.508606
v -2.407734 3.000000 -106.663010
v -2.407734 0.000000 -106.663010
v -2.785196 0.000000 -105.059357
v -2.785196 3.000000 -105.059357
v -4.316709 0.000000 -97.624046
v -4.316709 3.000000 -97.624046
v -5.543648 0.000000 -89.791382
v -5.543648 3.000000 -89.791382
v -6.379220 0.000000 -81.939140
v -6.379220 3.000000 -81.939140
v -6.824339 0.000000 -74.057632
v -6.824339 3.000000 -74.057632
v -6.877990 0.000000 -66.137054
v -6.877990 3.000000 -66.137054
v -6.537233 0.000000 -58.167622
v -6.537233 3.000000 -58.167622
v -5.800572 0.000000 -50.168236
v -5.800572 3.000000 -50.168236
v -5.800572 3.000000 -27.641655
v -5.800572 0.000000 -27.641655
v -9.169709 3.000000 -0.508608
v -9.169709 0.000000 -0.508608
v -9.044658 0.000000 1.000542
v -9.044658 3.000000 1.000542
v -8.672914 0.000000 2.468525
v -8.672914 3.000000 2.468525
v -8.064617 0.000000 3.855301
v -8.064617 3.000000 3.855301
v -7.236362 0.000000 5.123040
v -7.236362 3.000000 5.123040
v -6.210740 0.000000 6.237164
v -6.210740 3.000000 6.237164
v -5.015727 0.000000 7.167279
v -5.015727 3.000000 7.167279
v -3.683921 0.000000 7.888017
v -3.683921 3.000000 7.888017
v -2.251649 0.000000 8.379716
v -2.251649 3.000000 8.379716
v -0.757980 0.000000 8.628965
v -0.757980 3.000000 8.628965
v 0.756341 0.000000 8.628965
v 0.756341 3.000000 8.628965
v 2.250010 0.000000 8.379716
v 2.250010 3.000000 8.379716
v 3.682281 0.000000 7.888017
v 3.682281 3.000000 7.888017
v 5.014088 0.000000 7.167279
v 5.014088 3.000000 7.167279
v 6.209101 0.000000 6.237164
v 6.209101 3.000000 6.237164
v 7.234723 0.000000 5.123040
v 7.234723 3.000000 5.123040
v 8.062978 0.000000 3.855301
v 8.062978 3.000000 3.855301
v 8.671273 0.000000 2.468525
v 8.671273 3.000000 2.468525
v 9.043017 0.000000 1.000542
v 9.043017 3.000000 1.000542
v 9.168069 0.000000 -0.508608
v 9.168069 3.000000 -0.508608
vn 1.0000 0.0000 0.0000
vn 0.9958 0.0000 0.0917
vn 0.9991 0.0000 0.0427
vn 1.0000 0.0000 -0.0068
vn 0.9984 0.0000 -0.0564
vn 0.9944 0.0000 -0.1058
vn 0.9880 0.0000 -0.1548
vn 0.9794 0.0000 -0.2017
vn 0.9734 0.0000 -0.2291
vn 0.9989 0.0000 -0.0476
vn 0.0000 0.0000 -1.0000
vn -0.9989 0.0000 -0.0476
vn -0.9734 0.0000 -0.2291
vn -0.9794 0.0000 -0.2017
vn -0.9880 0.0000 -0.1548
vn -0.9944 0.0000 -0.1058
vn -0.9984 0.0000 -0.0564
vn -1.0000 0.0000 -0.0068
vn -0.9991 0.0000 0.0427
vn -0.9958 0.0000 0.0917
vn -1.0000 0.0000 0.0000
vn -0.9924 0.0000 -0.1232
vn -0.9966 0.0000 0.0826
vn -0.9694 0.0000 0.2455
vn -0.9158 0.0000 0.4017
vn -0.8372 0.0000 0.5469
vn -0.7357 0.0000 0.6773
vn -0.6142 0.0000 0.7891
vn -0.4759 0.0000 0.8795
vn -0.3247 0.0000 0.9458
vn -0.1646 0.0000 0.9864
vn 0.0000 0.0000 1.0000
vn 0.1646 0.0000 0.9864
vn 0.3247 0.0000 0.9458
vn 0.4759 0.0000 0.8795
vn 0.6142 0.0000 0.7891
vn 0.7357 0.0000 0.6773
vn 0.8372 0.0000 0.5469
vn 0.9158 0.0000 0.4017
vn 0.9694 0.0000 0.2455
vn 0.9966 0.0000 0.0826
vn 0.9924 0.0000 -0.1232
vn 0.0000 1.0000 0.0000
vn 0.0000 -1.0000 0.0000
usemtl None
s off
f 1//1 2//1 3//1
f 3//1 2//1 4//1
f 1//2 3//2 5//2
f 1//2 5//2 6//2
f 6//3 5//3 7//3
f 6//3 7//3 8//3
f 8//4 7//4 9//4
f 8//4 9//4 10//4
f 10//5 9//5 11//5
f 10//5 11//5 12//5
f 12//6 11//6 13//6
f 12//6 13//6 14//6
f 14//7 13//7 15//7
f 14//7 15//7 16//7
f 16//8 15//8 17//8
f 16//8 17//8 18//8
f 18//9 17//9 19//9
f 18//9 19//9 20//9
f 21//10 20//10 22//10
f 22//10 20//10 19//10
f 23//11 21//11 24//11
f 24//11 21//11 22//11
f 25//12 23//12 26//12
f 26//12 23//12 24//12
f 25//13 26//13 27//13
f 25//13 27//13 28//13
f 28//14 27//14 29//14
f 28//14 29//14 30//14
f 30//15 29//15 31//15
f 30//15 31//15 32//15
f 32//16 31//16 33//16
f 32//16 33//16 34//16
f 34//17 33//17 35//17
f 34//17 35//17 36//17
f 36//18 35//18 37//18
f 36//18 37//18 38//18
f 38//19 37//19 39//19
f 38//19 39//19 40//19
f 40//20 39//20 41//20
f 40//20 41//20 42//20
f 43//21 42//21 44//21
f 44//21 42//21 41//21
f 45//22 43//22 46//22
f 46//22 43//22 44//22
f 45//23 46//23 47//23
f 45//23 47//23 48//23
f 48//24 47//24 49//24
f 48//24 49//24 50//24
f 50//25 49//25 51//25
f 50//25 51//25 52//25
f 52//26 51//26 53//26
f 52//26 53//26 54//26
f 54//27 53//27 55//27
f 54//27 55//27 56//27
f 56//28 55//28 57//28
f 56//28 57//28 58//28
f 58//29 57//29 59//29
f 58//29 59//29 60//29
f 60//30 59//30 61//30
f 60//30 61//30 62//30
f 62//31 61//31 63//31
f 62//31 63//31 64//31
f 64//32 63//32 65//32
f 64//32 65//32 66//32
f 66//33 65//33 67//33
f 66//33 67//33 68//33
f 68//34 67//34 69//34
f 68//34 69//34 70//34
f 70//35 69//35 71//35
f 70//35 71//35 72//35
f 72//36 71//36 73//36
f 72//36 73//36 74//36
f 74//37 73//37 75//37
f 74//37 75//37 76//37
f 76//38 75//38 77//38
f 76//38 77//38 78//38
f 78//39 77//39 79//39
f 78//39 79//39 80//39
f 80//40 79//40 81//40
f 80//40 81//40 82//40
f 82//41 81//41 83//41
f 82//41 83//41 84//41
f 2//42 84//42 4//42
f 4//42 84//42 83//42
f 56//43 58//43 43//43
f 64//43 66//43 43//43
f 43//43 66//43 68//43
f 43//43 68//43 70//43
f 70//43 72//43 43//43
f 43//43 72//43 74//43
f 43//43 74//43 76//43
f 58//43 60//43 43//43
f 43//43 60//43 62//43
f 43//43 62//43 64//43
f 76//43 78//43 43//43
f 43//43 78//43 80//43
f 43//43 80//43 82//43
f 50//43 43//43 48//43
f 48//43 43//43 45//43
f 50//43 52//43 43//43
f 43//43 52//43 54//43
f 43//43 54//43 56//43
f 82//43 84//43 43//43
f 43//43 84//43 2//43
f 43//43 2//43 42//43
f 42//43 2//43 1//43
f 42//43 1//43 40//43
f 40//43 1//43 6//43
f 40//43 6//43 38//43
f 38//43 6//43 8//43
f 38//43 8//43 36//43
f 36//43 8//43 10//43
f 36//43 10//43 34//43
f 34//43 10//43 12//43
f 34//43 12//43 32//43
f 32//43 12//43 14//43
f 32//43 14//43 30//43
f 30//43 14//43 16//43
f 30//43 16//43 28//43
f 28//43 16//43 18//43
f 28//43 18//43 25//43
f 25//43 18//43 20//43
f 25//43 20//43 23//43
f 23//43 20//43 21//43
f 83//44 81//44 44//44
f 81//44 79//44 44//44
f 44//44 79//44 77//44
f 44//44 77//44 75//44
f 75//44 73//44 44//44
f 44//44 73//44 71//44
f 44//44 71//44 69//44
f 69//44 67//44 44//44
f 44//44 67//44 65//44
f 44//44 65//44 63//44
f 63//44 61//44 44//44
f 44//44 61//44 59//44
f 44//44 59//44 57//44
f 57//44 55//44 44//44
f 44//44 55//44 53//44
f 44//44 53//44 51//44
f 51//44 49//44 44//44
f 44//44 49//44 47//44
f 44//44 47//44 46//44
f 24//44 22//44 26//44
f 26//44 22//44 19//44
f 26//44 19//44 27//44
f 27//44 19//44 17//44
f 27//44 17//44 29//44
f 29//44 17//44 15//44
f 29//44 15//44 31//44
f 31//44 15//44 13//44
f 31//44 13//44 33//44
f 33//44 13//44 11//44
f 33//44 11//44 35//44
f 35//44 11//44 9//44
f 35//44 9//44 37//44
f 37//44 9//44 7//44
f 37//44 7//44 39//44
f 39//44 7//44 5//44
f 39//44 5//44 41//44
f 41//44 5//44 3//44
f 41//44 3//44 44//44
f 44//44 3//44 4//44
f 44//44 4//44 83//44
